<?xml version="1.0" encoding="UTF-8" standalone="no"?>
<svg width="1270px" height="1000px" viewBox="0 0 1270 1000" version="1.1" xmlns="http://www.w3.org/2000/svg" xmlns:xlink="http://www.w3.org/1999/xlink">
    <!-- Generator: Sketch 3.6.1 (26313) - http://www.bohemiancoding.com/sketch -->
    <title>white</title>
    <desc>Created with Sketch.</desc>
    <defs></defs>
    <g id="Page-1" stroke="none" stroke-width="1" fill="none" fill-rule="evenodd">
        <g id="white" fill="#FFFFFF">
            <path d="M19.3808594,920.414062 L4.04882812,935.160156 C1.37954395,928.193976 0.044921875,921.455762 0.044921875,914.945312 C0.044921875,898.799398 7.0435498,885.778695 21.0410156,875.882812 C32.7598242,867.549438 52.811707,863.382812 81.1972656,863.382812 C86.014998,863.382812 90.2467266,863.480468 93.8925781,863.675781 C103.983774,864.326826 109.159504,864.652344 109.419922,864.652344 L116.255859,864.652344 C111.177709,872.595092 108.638672,888.67566 108.638672,912.894531 L108.736328,917.972656 L109.126953,929.203125 C109.126953,942.679755 110.787093,956.4817 114.107422,970.609375 C115.409512,976.078152 116.67903,979.593742 117.916016,981.15625 C119.153001,982.718758 121.301417,983.5 124.361328,983.5 C127.681657,983.5 131.457661,982.425792 135.689453,980.277344 C136.145185,981.38412 136.373047,982.295569 136.373047,983.011719 C136.373047,984.639331 135.103528,986.039057 132.564453,987.210938 L127.974609,989.457031 L103.951172,999.90625 C98.6126035,983.434813 95.3899795,966.182382 94.2832031,948.148438 L86.8613281,953.324219 L54.0488281,953.324219 C48.0592148,968.55867 39.8561719,979.430957 29.4394531,985.941406 L49.6542969,986.917969 L39.1074219,998.050781 L0.142578125,996.683594 L13.1308594,984.964844 L22.8964844,985.550781 C27.3235898,982.295557 31.0995937,977.722035 34.2246094,971.830078 C37.349625,965.938122 42.0045264,954.52873 48.1894531,937.601562 L51.1191406,929.496094 C57.1087539,913.154866 62.8053115,901.257199 68.2089844,893.802734 C73.6126572,886.34827 80.9693545,880.212264 90.2792969,875.394531 C80.0578916,873.506501 69.2832598,872.5625 57.9550781,872.5625 C29.1137881,872.5625 14.6933594,882.295476 14.6933594,901.761719 C14.6933594,908.402377 16.2558437,914.619763 19.3808594,920.414062 L19.3808594,920.414062 Z M94.0878906,942.777344 C93.1764277,931.449162 92.7207031,922.269566 92.7207031,915.238281 C92.7207031,911.657534 92.7858066,908.727876 92.9160156,906.449219 L93.6972656,895.121094 C94.2181016,887.373659 94.9342402,881.449239 95.8457031,877.347656 C83.0852227,885.160195 72.6035566,901.110557 64.4003906,925.199219 C62.0566289,932.165399 60.6894551,936.169266 60.2988281,937.210938 L58.0527344,942.777344 L94.0878906,942.777344 Z M212.740234,957.621094 C205.318322,969.01438 196.952521,978.682252 187.642578,986.625 C178.332636,994.567748 170.748076,998.539062 164.888672,998.539062 C158.443327,998.539062 155.220703,994.24223 155.220703,985.648438 C155.220703,982.458317 155.643876,977.217484 156.490234,969.925781 L160.005859,937.894531 C160.070964,937.4388 160.233723,935.550798 160.494141,932.230469 L161.080078,925.882812 C161.275392,923.994782 161.373047,922.302091 161.373047,920.804688 C161.373047,917.028627 160.298839,915.140625 158.150391,915.140625 C153.202449,915.140625 147.863961,920.706976 142.134766,931.839844 C140.89778,930.863276 140.279297,929.82162 140.279297,928.714844 C140.279297,924.678365 143.876266,919.307325 151.070312,912.601562 C158.264359,905.8958 163.977192,902.542969 168.208984,902.542969 C173.612657,902.542969 176.314453,906.253869 176.314453,913.675781 C176.314453,915.433603 176.184246,917.484363 175.923828,919.828125 L175.044922,927.347656 L174.166016,935.550781 L171.041016,963.480469 C170.52018,968.233097 170.259766,973.050757 170.259766,977.933594 C170.259766,982.425804 171.919905,984.671875 175.240234,984.671875 C182.597042,984.671875 190.914016,978.617248 200.191406,966.507812 C209.468796,954.398377 214.953768,942.41933 216.646484,930.570312 L219.966797,907.425781 L235.787109,902.054688 C233.964184,909.606809 232.59701,916.345022 231.685547,922.269531 L225.826172,963.089844 C225.500649,965.563814 225.240235,967.647127 225.044922,969.339844 L224.361328,974.710938 C223.970701,978.031267 223.775391,980.374993 223.775391,981.742188 C223.775391,984.541681 224.556633,985.941406 226.119141,985.941406 C231.653022,985.941406 237.284477,979.821676 243.013672,967.582031 C244.771493,968.623703 245.650391,969.665359 245.650391,970.707031 C245.650391,972.985688 242.818388,977.575486 237.154297,984.476562 C229.537071,993.851609 222.47334,998.539062 215.962891,998.539062 C211.210263,998.539062 208.833984,995.34899 208.833984,988.96875 C208.833984,986.950511 209.061847,984.248715 209.517578,980.863281 L210.591797,973.050781 C211.177737,968.818989 211.568358,965.954435 211.763672,964.457031 L212.740234,957.621094 Z M322.212891,905.082031 L311.080078,918.460938 C305.871719,916.312489 300.8913,915.238281 296.138672,915.238281 C287.609983,915.238281 280.888045,918.851526 275.972656,926.078125 C271.057267,933.304724 268.599609,943.200458 268.599609,955.765625 C268.599609,964.619836 270.37368,971.748671 273.921875,977.152344 C277.47007,982.556017 282.108695,985.257812 287.837891,985.257812 C297.53846,985.257812 305.155571,978.91022 310.689453,966.214844 C312.121752,967.777352 312.837891,969.242181 312.837891,970.609375 C312.837891,976.013048 308.622438,982.018847 300.191406,988.626953 C291.760375,995.235059 284.029332,998.539062 276.998047,998.539062 C270.22718,998.539062 264.677105,995.820991 260.347656,990.384766 C256.018208,984.948541 253.853516,977.901085 253.853516,969.242188 C253.853516,952.380124 259.582625,937.048246 271.041016,923.246094 C282.499406,909.443941 295.227144,902.542969 309.224609,902.542969 C314.30276,902.542969 318.632144,903.389314 322.212891,905.082031 L322.212891,905.082031 Z M361.373047,916.410156 L356.490234,959.574219 C355.643876,967.321653 355.220703,973.050763 355.220703,976.761719 C355.220703,984.118526 357.727188,987.796875 362.740234,987.796875 C368.143907,987.796875 373.74281,983.369836 379.537109,974.515625 C380.513677,975.75261 381.001953,976.85937 381.001953,977.835938 C381.001953,981.481789 377.795605,985.843725 371.382812,990.921875 C364.97002,996.000025 359.452497,998.539062 354.830078,998.539062 C345.58524,998.539062 340.962891,992.614643 340.962891,980.765625 C340.962891,976.403624 341.516271,969.339893 342.623047,959.574219 L347.408203,916.410156 L326.802734,916.410156 L338.228516,905.082031 L348.677734,905.082031 L350.728516,887.308594 L365.083984,882.523438 L362.642578,905.082031 L418.697266,905.082031 L412.251953,963.089844 L411.568359,969.339844 C410.982419,974.873726 410.689453,978.779937 410.689453,981.058594 C410.689453,984.313818 411.535799,985.941406 413.228516,985.941406 C418.762397,985.941406 424.198541,979.821676 429.537109,967.582031 C431.360035,968.623703 432.271484,969.697911 432.271484,970.804688 C432.271484,973.083345 429.60224,977.640591 424.263672,984.476562 C416.906864,993.851609 410.005892,998.539062 403.560547,998.539062 C398.547501,998.539062 396.041016,995.088576 396.041016,988.1875 C396.041016,985.648425 396.464188,980.602902 397.310547,973.050781 L398.189453,964.457031 L403.560547,916.410156 L361.373047,916.410156 Z M410.787109,889.945312 L418.990234,869.730469 C426.281937,866.735662 432.271461,862.601589 436.958984,857.328125 C437.675134,858.239588 438.033203,859.183589 438.033203,860.160156 C438.033203,868.884158 428.951263,878.812444 410.787109,889.945312 L410.787109,889.945312 Z M463.912109,998.539062 C449.263599,998.539062 441.939453,988.838639 441.939453,969.4375 C441.939453,953.812422 447.668563,938.757234 459.126953,924.271484 C470.585344,909.785735 482.466735,902.542969 494.771484,902.542969 C509.615309,902.542969 517.037109,912.243393 517.037109,931.644531 C517.037109,947.334714 511.308,962.406178 499.849609,976.859375 C488.391219,991.312572 476.412172,998.539062 463.912109,998.539062 L463.912109,998.539062 Z M475.728516,987.601562 C483.215532,987.601562 489.481746,983.434937 494.527344,975.101562 C499.572942,966.768188 502.095703,956.384177 502.095703,943.949219 C502.095703,923.636617 495.780662,913.480469 483.150391,913.480469 C475.728479,913.480469 469.494817,917.66337 464.449219,926.029297 C459.403621,934.395224 456.880859,944.762959 456.880859,957.132812 C456.880859,977.445414 463.163349,987.601562 475.728516,987.601562 L475.728516,987.601562 Z M554.341797,992.582031 L539.791016,998.539062 L540.083984,995.804688 L540.865234,988.578125 L541.646484,981.742188 L546.724609,936.429688 L547.310547,931.253906 C547.701174,927.217428 547.896484,923.962252 547.896484,921.488281 C547.896484,917.321594 546.854828,915.238281 544.771484,915.238281 C539.888647,915.238281 534.647814,920.77208 529.048828,931.839844 C527.551425,930.602858 526.802734,929.52865 526.802734,928.617188 C526.802734,924.710918 530.367152,919.388706 537.496094,912.650391 C544.625036,905.912076 550.240214,902.542969 554.341797,902.542969 C559.940783,902.542969 562.740234,906.123662 562.740234,913.285156 C562.740234,915.108082 562.577476,917.549464 562.251953,920.609375 L561.470703,928.519531 L560.689453,935.160156 L559.908203,942.09375 C567.590533,930.635359 576.005163,921.179074 585.152344,913.724609 C594.299525,906.270145 602.095671,902.542969 608.541016,902.542969 C614.856151,902.542969 618.013672,906.937456 618.013672,915.726562 C618.013672,918.395847 617.655603,922.399713 616.939453,927.738281 L611.666016,964.164062 C610.624344,971.455766 610.103516,977.217427 610.103516,981.449219 C610.103516,984.834652 611.014965,986.527344 612.837891,986.527344 C617.330101,986.527344 622.863899,980.53782 629.439453,968.558594 C631.001961,969.535161 631.783203,970.544266 631.783203,971.585938 C631.783203,975.817729 628.153682,981.367804 620.894531,988.236328 C613.63538,995.104852 607.727236,998.539062 603.169922,998.539062 C598.091771,998.539062 595.552734,994.893266 595.552734,987.601562 C595.552734,982.262994 596.236321,974.873745 597.603516,965.433594 L601.021484,941.800781 C602.128261,934.118451 602.681641,928.031272 602.681641,923.539062 C602.681641,918.395808 600.891294,915.824219 597.310547,915.824219 C588.977172,915.824219 580.529991,921.471949 571.96875,932.767578 C563.407509,944.063208 558.410814,956.188737 556.978516,969.144531 L554.341797,992.582031 Z M773.091797,864.652344 C770.162095,879.561272 768.4043,889.587214 767.818359,894.730469 L764.791016,921.78125 L819.283203,921.78125 L819.673828,918.265625 C823.90562,880.439915 831.392524,854.724026 842.134766,841.117188 C855.285873,824.450438 869.869061,816.117188 885.884766,816.117188 C891.874379,816.117188 897.440729,817.158844 902.583984,819.242188 L888.130859,833.402344 C882.662082,829.691388 877.225938,827.835938 871.822266,827.835938 C860.819606,827.835938 853.169943,833.288357 848.873047,844.193359 C844.57615,855.098362 840.31187,879.78887 836.080078,918.265625 L834.615234,931.546875 C832.792309,948.669356 831.880859,961.917922 831.880859,971.292969 C831.880859,976.826851 834.257138,979.59375 839.009766,979.59375 C842.525408,979.59375 846.887344,978.096369 852.095703,975.101562 C852.356121,976.273443 852.486328,977.087237 852.486328,977.542969 C852.486328,979.496104 850.761085,981.253898 847.310547,982.816406 L841.646484,985.453125 L812.935547,998.539062 C812.935547,986.494731 814.498031,966.019676 817.623047,937.113281 L818.013672,933.597656 L763.521484,933.597656 L762.544922,942.484375 L761.275391,953.324219 C760.168614,962.569057 758.166681,969.242167 755.269531,973.34375 C752.372381,977.445333 746.822307,981.449199 738.619141,985.355469 L761.666016,986.820312 L749.947266,998.148438 L707.662109,996 L720.162109,983.890625 L730.806641,985.0625 C735.949896,981.742171 739.498037,977.591822 741.451172,972.611328 C743.404307,967.630834 745.096998,958.369859 746.529297,944.828125 L754.048828,876.46875 L751.021484,876.46875 C723.938016,876.46875 710.396484,885.420483 710.396484,903.324219 C710.396484,908.923205 711.926417,914.554659 714.986328,920.21875 L699.068359,935.453125 C697.570956,930.374975 696.822266,925.329452 696.822266,920.316406 C696.822266,903.519447 703.072203,890.04302 715.572266,879.886719 C728.072328,869.730418 744.673725,864.652344 765.376953,864.652344 L773.091797,864.652344 Z M887.447266,998.539062 C872.798755,998.539062 865.474609,988.838639 865.474609,969.4375 C865.474609,953.812422 871.203719,938.757234 882.662109,924.271484 C894.1205,909.785735 906.001892,902.542969 918.306641,902.542969 C933.150465,902.542969 940.572266,912.243393 940.572266,931.644531 C940.572266,947.334714 934.843156,962.406178 923.384766,976.859375 C911.926375,991.312572 899.947328,998.539062 887.447266,998.539062 L887.447266,998.539062 Z M899.263672,987.601562 C906.750688,987.601562 913.016902,983.434937 918.0625,975.101562 C923.108098,966.768188 925.630859,956.384177 925.630859,943.949219 C925.630859,923.636617 919.315818,913.480469 906.685547,913.480469 C899.263635,913.480469 893.029973,917.66337 887.984375,926.029297 C882.938777,934.395224 880.416016,944.762959 880.416016,957.132812 C880.416016,977.445414 886.698505,987.601562 899.263672,987.601562 L899.263672,987.601562 Z M1022.21289,957.621094 C1014.79098,969.01438 1006.42518,978.682252 997.115234,986.625 C987.805292,994.567748 980.220732,998.539062 974.361328,998.539062 C967.915983,998.539062 964.693359,994.24223 964.693359,985.648438 C964.693359,982.458317 965.116532,977.217484 965.962891,969.925781 L969.478516,937.894531 C969.54362,937.4388 969.706379,935.550798 969.966797,932.230469 L970.552734,925.882812 C970.748048,923.994782 970.845703,922.302091 970.845703,920.804688 C970.845703,917.028627 969.771495,915.140625 967.623047,915.140625 C962.675105,915.140625 957.336617,920.706976 951.607422,931.839844 C950.370437,930.863276 949.751953,929.82162 949.751953,928.714844 C949.751953,924.678365 953.348922,919.307325 960.542969,912.601562 C967.737015,905.8958 973.449849,902.542969 977.681641,902.542969 C983.085313,902.542969 985.787109,906.253869 985.787109,913.675781 C985.787109,915.433603 985.656902,917.484363 985.396484,919.828125 L984.517578,927.347656 L983.638672,935.550781 L980.513672,963.480469 C979.992836,968.233097 979.732422,973.050757 979.732422,977.933594 C979.732422,982.425804 981.392562,984.671875 984.712891,984.671875 C992.069698,984.671875 1000.38667,978.617248 1009.66406,966.507812 C1018.94145,954.398377 1024.42642,942.41933 1026.11914,930.570312 L1029.43945,907.425781 L1045.25977,902.054688 C1043.43684,909.606809 1042.06967,916.345022 1041.1582,922.269531 L1035.29883,963.089844 C1034.97331,965.563814 1034.71289,967.647127 1034.51758,969.339844 L1033.83398,974.710938 C1033.44336,978.031267 1033.24805,980.374993 1033.24805,981.742188 C1033.24805,984.541681 1034.02929,985.941406 1035.5918,985.941406 C1041.12568,985.941406 1046.75713,979.821676 1052.48633,967.582031 C1054.24415,968.623703 1055.12305,969.665359 1055.12305,970.707031 C1055.12305,972.985688 1052.29104,977.575486 1046.62695,984.476562 C1039.00973,993.851609 1031.946,998.539062 1025.43555,998.539062 C1020.68292,998.539062 1018.30664,995.34899 1018.30664,988.96875 C1018.30664,986.950511 1018.5345,984.248715 1018.99023,980.863281 L1020.06445,973.050781 C1020.65039,968.818989 1021.04101,965.954435 1021.23633,964.457031 L1022.21289,957.621094 Z M1057.4668,993.265625 L1070.94336,982.230469 C1076.02151,987.634142 1082.40165,990.335938 1090.08398,990.335938 C1099.45903,990.335938 1104.14648,985.811243 1104.14648,976.761719 C1104.14648,971.748673 1099.84965,964.750045 1091.25586,955.765625 L1085.68945,950.003906 C1077.55139,941.475218 1073.48242,934.574245 1073.48242,929.300781 C1073.48242,921.74866 1076.75387,915.401067 1083.29688,910.257812 C1089.83988,905.114558 1097.89644,902.542969 1107.4668,902.542969 C1112.67516,902.542969 1118.37171,903.519521 1124.55664,905.472656 L1112.83789,916.3125 C1107.88995,912.601544 1102.3887,910.746094 1096.33398,910.746094 C1089.23759,910.746094 1085.68945,913.708304 1085.68945,919.632812 C1085.68945,923.864604 1089.62822,930.08199 1097.50586,938.285156 L1103.56055,944.730469 C1112.54497,954.105516 1117.03711,961.657523 1117.03711,967.386719 C1117.03711,975.589885 1113.09835,982.832651 1105.2207,989.115234 C1097.34306,995.397818 1088.26112,998.539062 1077.97461,998.539062 C1070.68291,998.539062 1063.84704,996.781268 1057.4668,993.265625 L1057.4668,993.265625 Z M1194.08789,964.945312 C1195.7155,966.052089 1196.5293,967.354159 1196.5293,968.851562 C1196.5293,970.869802 1194.44598,974.320288 1190.2793,979.203125 C1179.14643,992.093814 1168.14393,998.539062 1157.27148,998.539062 C1150.63083,998.539062 1145.16213,995.90237 1140.86523,990.628906 C1136.56834,985.355442 1134.41992,978.617229 1134.41992,970.414062 C1134.41992,955.570238 1140.0351,940.547602 1151.26562,925.345703 C1162.49615,910.143804 1173.61258,902.542969 1184.61523,902.542969 C1192.55798,902.542969 1196.5293,906.807249 1196.5293,915.335938 C1196.5293,924.906298 1191.89067,934.248652 1182.61328,943.363281 C1173.33589,952.47791 1162.02416,958.825503 1148.67773,962.40625 C1149.97982,978.096433 1156.16466,985.941406 1167.23242,985.941406 C1178.16998,985.941406 1187.12171,978.942778 1194.08789,964.945312 L1194.08789,964.945312 Z M1149.06836,950.492188 C1150.95639,951.143232 1152.68163,951.46875 1154.24414,951.46875 C1162.3171,951.46875 1169.38083,948.994816 1175.43555,944.046875 C1181.49026,939.098934 1184.51758,933.304721 1184.51758,926.664062 C1184.51758,919.046837 1180.64392,915.238281 1172.89648,915.238281 C1167.2975,915.238281 1162.2357,918.574836 1157.71094,925.248047 C1153.18618,931.921257 1150.30534,940.335887 1149.06836,950.492188 L1149.06836,950.492188 Z M1202.87695,993.265625 L1216.35352,982.230469 C1221.43167,987.634142 1227.81181,990.335938 1235.49414,990.335938 C1244.86919,990.335938 1249.55664,985.811243 1249.55664,976.761719 C1249.55664,971.748673 1245.25981,964.750045 1236.66602,955.765625 L1231.09961,950.003906 C1222.96155,941.475218 1218.89258,934.574245 1218.89258,929.300781 C1218.89258,921.74866 1222.16403,915.401067 1228.70703,910.257812 C1235.25003,905.114558 1243.30659,902.542969 1252.87695,902.542969 C1258.08531,902.542969 1263.78187,903.519521 1269.9668,905.472656 L1258.24805,916.3125 C1253.30011,912.601544 1247.79886,910.746094 1241.74414,910.746094 C1234.64775,910.746094 1231.09961,913.708304 1231.09961,919.632812 C1231.09961,923.864604 1235.03837,930.08199 1242.91602,938.285156 L1248.9707,944.730469 C1257.95512,954.105516 1262.44727,961.657523 1262.44727,967.386719 C1262.44727,975.589885 1258.5085,982.832651 1250.63086,989.115234 C1242.75322,995.397818 1233.67128,998.539062 1223.38477,998.539062 C1216.09306,998.539062 1209.25719,996.781268 1202.87695,993.265625 L1202.87695,993.265625 Z" id="Auction-Houses"></path>
            <path d="M317.390625,104.054688 L338.289062,104.054688 C347.989632,104.054688 357.983021,103.17579 368.269531,101.417969 C360.587201,110.597702 353.360711,115.1875 346.589844,115.1875 L338.289062,114.992188 L328.816406,114.796875 L321.296875,114.601562 L316.21875,114.601562 L315.4375,121.730469 L314.460938,130.324219 C313.354161,139.503952 311.352228,146.160787 308.455078,150.294922 C305.557928,154.429057 299.975302,158.449199 291.707031,162.355469 L318.757812,163.820312 L307.039062,175.148438 L260.75,173 L273.347656,160.890625 L283.894531,162.0625 C291.837279,157.049454 296.720043,146.79565 298.542969,131.300781 L299.617188,121.730469 L307.332031,52.1992188 L304.011719,52.1992188 C291.381447,52.1992188 281.469437,54.7870835 274.275391,59.9628906 C267.081344,65.1386978 263.484375,72.2187051 263.484375,81.203125 C263.484375,86.6067979 264.981756,92.1405967 267.976562,97.8046875 L252.15625,113.039062 C250.658847,107.960912 249.910156,103.013045 249.910156,98.1953125 C249.910156,79.9660547 257.494716,65.2201084 272.664062,53.9570312 C283.731826,45.7538652 299.454325,41.6523438 319.832031,41.6523438 L352.15625,41.6523438 C364.265686,41.6523438 376.602802,41.2291709 389.167969,40.3828125 L381.355469,60.4023438 L379.792969,64.015625 C378.165356,67.85679 376.082044,69.7773438 373.542969,69.7773438 C373.087237,69.7773438 372.598961,69.744792 372.078125,69.6796875 C372.859379,66.3593584 373.25,63.7552178 373.25,61.8671875 C373.25,57.570291 370.971377,54.884771 366.414062,53.8105469 C361.856748,52.7363228 350.561288,52.1992188 332.527344,52.1992188 L323.152344,52.1992188 L317.390625,104.054688 Z M410.359375,175.539062 C395.710864,175.539062 388.386719,165.838639 388.386719,146.4375 C388.386719,130.812422 394.115828,115.757234 405.574219,101.271484 C417.032609,86.7857349 428.914001,79.5429688 441.21875,79.5429688 C456.062574,79.5429688 463.484375,89.2433926 463.484375,108.644531 C463.484375,124.334714 457.755266,139.406178 446.296875,153.859375 C434.838484,168.312572 422.859438,175.539062 410.359375,175.539062 L410.359375,175.539062 Z M422.175781,164.601562 C429.662798,164.601562 435.929011,160.434937 440.974609,152.101562 C446.020208,143.768188 448.542969,133.384177 448.542969,120.949219 C448.542969,100.636617 442.227928,90.4804688 429.597656,90.4804688 C422.175744,90.4804688 415.942083,94.6633696 410.896484,103.029297 C405.850886,111.395224 403.328125,121.762959 403.328125,134.132812 C403.328125,154.445414 409.610614,164.601562 422.175781,164.601562 L422.175781,164.601562 Z M547.273438,93.4101562 L505.085938,93.4101562 L500.203125,136.574219 C499.356767,144.321653 498.933594,150.050763 498.933594,153.761719 C498.933594,161.118526 501.440079,164.796875 506.453125,164.796875 C511.856798,164.796875 517.4557,160.369836 523.25,151.515625 C524.226567,152.75261 524.714844,153.85937 524.714844,154.835938 C524.714844,158.481789 521.508496,162.843725 515.095703,167.921875 C508.682911,173.000025 503.165388,175.539062 498.542969,175.539062 C489.298131,175.539062 484.675781,169.614643 484.675781,157.765625 C484.675781,153.403624 485.229161,146.339893 486.335938,136.574219 L491.121094,93.4101562 L470.515625,93.4101562 L481.941406,82.0820312 L492.390625,82.0820312 L494.441406,64.3085938 L508.796875,59.5234375 L506.355469,82.0820312 L548.542969,82.0820312 C550.821626,59.555877 556.420528,42.0104795 565.339844,29.4453125 C579.33731,9.84886035 595.743396,0.05078125 614.558594,0.05078125 C617.748714,0.05078125 620.873683,0.408850586 623.933594,1.125 L609.578125,15.1875 C605.867169,14.0807236 602.384131,13.5273438 599.128906,13.5273438 C579.727768,13.5273438 568.334652,28.6313594 564.949219,58.8398437 L558.308594,119.09375 C565.925819,107.635359 574.307897,98.1790737 583.455078,90.7246094 C592.602259,83.270145 600.398405,79.5429688 606.84375,79.5429688 C613.22399,79.5429688 616.414062,83.9700078 616.414062,92.8242188 C616.414062,95.3632939 616.023441,99.3346084 615.242188,104.738281 L609.96875,141.164062 C608.927078,148.390661 608.40625,154.184874 608.40625,158.546875 C608.40625,161.867204 609.350251,163.527344 611.238281,163.527344 C615.795596,163.527344 621.296843,157.53782 627.742188,145.558594 C629.304695,146.535161 630.085938,147.544266 630.085938,148.585938 C630.085938,152.882834 626.456417,158.449185 619.197266,165.285156 C611.938115,172.121128 606.029971,175.539062 601.472656,175.539062 C596.394506,175.539062 593.855469,171.893266 593.855469,164.601562 C593.855469,159.262994 594.539056,151.873745 595.90625,142.433594 L599.324219,118.800781 C600.430995,111.053347 600.984375,104.933616 600.984375,100.441406 C600.984375,95.3632559 599.194028,92.8242188 595.613281,92.8242188 C587.279906,92.8242188 578.832725,98.4882246 570.271484,109.816406 C561.710244,121.144588 556.713549,133.253842 555.28125,146.144531 L552.644531,169.582031 L538.09375,175.539062 L538.386719,172.804688 L539.167969,165.578125 L539.949219,158.742188 L547.273438,93.4101562 Z M698.542969,141.945312 C700.170581,143.052089 700.984375,144.354159 700.984375,145.851562 C700.984375,147.869802 698.901063,151.320288 694.734375,156.203125 C683.601507,169.093814 672.599013,175.539062 661.726562,175.539062 C655.085904,175.539062 649.617209,172.90237 645.320312,167.628906 C641.023416,162.355442 638.875,155.617229 638.875,147.414062 C638.875,132.570238 644.490178,117.547602 655.720703,102.345703 C666.951228,87.1438042 678.067653,79.5429688 689.070312,79.5429688 C697.013061,79.5429688 700.984375,83.807249 700.984375,92.3359375 C700.984375,101.906298 696.34575,111.248652 687.068359,120.363281 C677.790969,129.47791 666.479233,135.825503 653.132812,139.40625 C654.434902,155.096433 660.619736,162.941406 671.6875,162.941406 C682.625055,162.941406 691.576788,155.942778 698.542969,141.945312 L698.542969,141.945312 Z M653.523438,127.492188 C655.411468,128.143232 657.136711,128.46875 658.699219,128.46875 C666.772176,128.46875 673.835907,125.994816 679.890625,121.046875 C685.945343,116.098934 688.972656,110.304721 688.972656,103.664062 C688.972656,96.0468369 685.098997,92.2382812 677.351562,92.2382812 C671.752576,92.2382812 666.690778,95.5748364 662.166016,102.248047 C657.641253,108.921257 654.760423,117.335887 653.523438,127.492188 L653.523438,127.492188 Z M738.582031,120.949219 C745.613316,108.709574 753.393187,98.7487363 761.921875,91.0664062 C770.450563,83.3840762 777.97002,79.5429688 784.480469,79.5429688 C793.855516,79.5429688 798.542969,87.5181494 798.542969,103.46875 C798.542969,123.000098 792.341859,139.682874 779.939453,153.517578 C767.537047,167.352283 752.579515,174.269531 735.066406,174.269531 C732.852854,174.269531 730.899748,174.171876 729.207031,173.976562 L721.296875,173.195312 C720.841144,173.195312 719.604177,173.130209 717.585938,173 C719.018236,168.052059 720.027341,162.876329 720.613281,157.472656 L729.988281,73.1953125 C732.266938,52.9478154 739.753843,35.6953838 752.449219,21.4375 C765.144595,7.17961621 779.337161,0.05078125 795.027344,0.05078125 C798.282568,0.05078125 801.407537,0.408850586 804.402344,1.125 L790.046875,15.1875 C786.335919,14.0807236 782.852881,13.5273438 779.597656,13.5273438 C760.196518,13.5273438 748.835954,28.6313594 745.515625,58.8398437 L738.582031,120.949219 Z M734.285156,159.621094 C740.339874,162.941423 746.394501,164.601562 752.449219,164.601562 C761.433639,164.601562 768.725232,159.409557 774.324219,149.025391 C779.923205,138.641224 782.722656,125.115969 782.722656,108.449219 C782.722656,98.7486494 780.085964,93.8984375 774.8125,93.8984375 C768.953096,93.8984375 762.084675,98.2929248 754.207031,107.082031 C743.529895,118.996153 737.279957,132.993409 735.457031,149.074219 L734.285156,159.621094 Z M882.039062,134.132812 C875.463509,146.112039 868.578812,156.007773 861.384766,163.820312 C854.190719,171.632852 848.315127,175.539062 843.757812,175.539062 C837.507781,175.539062 834.057295,168.963607 833.40625,155.8125 L832.722656,142.238281 L831.453125,114.601562 L831.160156,106.691406 C830.574216,96.209583 828.653662,90.96875 825.398438,90.96875 C820.320287,90.96875 815.37242,95.7864102 810.554688,105.421875 C808.861971,104.249994 808.015625,102.980476 808.015625,101.613281 C808.015625,98.0976387 811.173146,93.5403926 817.488281,87.9414062 C823.803417,82.3424199 828.946595,79.5429688 832.917969,79.5429688 C837.019552,79.5429688 839.916658,81.3821431 841.609375,85.0605469 C843.302092,88.7389507 844.408852,95.5259922 844.929688,105.421875 L846.6875,139.601562 C847.338545,152.622461 849.421857,159.132812 852.9375,159.132812 C858.210964,159.132812 864.753867,153.094461 872.566406,141.017578 C880.378945,128.940695 885.391916,117.075579 887.605469,105.421875 L891.414062,85.5 L908.796875,79.4453125 C906.583322,85.1745078 904.304699,93.8332754 901.960938,105.421875 L888.875,170.949219 C883.731745,196.600389 875.789116,215.545512 865.046875,227.785156 C848.966065,246.014414 830.34646,255.128906 809.1875,255.128906 C804.760395,255.128906 799.779976,254.152354 794.246094,252.199219 L806.257812,239.015625 C812.377635,241.750014 818.757779,243.117188 825.398438,243.117188 C838.940172,243.117188 849.09632,238.7227 855.867188,229.933594 C862.638055,221.144487 868.302061,205.031367 872.859375,181.59375 L882.039062,134.132812 Z M929.402344,92.7265625 L926.863281,89.9921875 C936.824269,82.7655889 941.804688,74.8555117 941.804688,66.2617188 C941.804688,59.1002246 937.898477,52.9153906 930.085938,47.7070312 L943.757812,34.1328125 C951.765665,40.0573213 955.769531,47.0559492 955.769531,55.1289062 C955.769531,66.7175059 946.980557,79.2499326 929.402344,92.7265625 L929.402344,92.7265625 Z M954.011719,170.265625 L967.488281,159.230469 C972.566432,164.634142 978.946576,167.335938 986.628906,167.335938 C996.003953,167.335938 1000.69141,162.811243 1000.69141,153.761719 C1000.69141,148.748673 996.394574,141.750045 987.800781,132.765625 L982.234375,127.003906 C974.096313,118.475218 970.027344,111.574245 970.027344,106.300781 C970.027344,98.7486602 973.298795,92.4010674 979.841797,87.2578125 C986.384798,82.1145576 994.441358,79.5429688 1004.01172,79.5429688 C1009.22008,79.5429688 1014.91664,80.5195215 1021.10156,82.4726562 L1009.38281,93.3125 C1004.43487,89.6015439 998.933624,87.7460938 992.878906,87.7460938 C985.782517,87.7460938 982.234375,90.7083037 982.234375,96.6328125 C982.234375,100.864604 986.173138,107.08199 994.050781,115.285156 L1000.10547,121.730469 C1009.08989,131.105516 1013.58203,138.657523 1013.58203,144.386719 C1013.58203,152.589885 1009.64327,159.832651 1001.76562,166.115234 C993.887981,172.397818 984.806041,175.539062 974.519531,175.539062 C967.227828,175.539062 960.391959,173.781268 954.011719,170.265625 L954.011719,170.265625 Z" id="Fotheby’s"></path>
            <path d="M462.293937,341.968339 C465.561611,338.873426 478.621944,339.000736 478.621944,339.000736 L798.604092,341.968339 C798.604092,341.968339 769.958598,370.200915 680.356227,384.052719 C590.753857,397.904523 524.99817,421.708108 524.99817,421.708108 L829.174638,374.020247 C829.174638,374.020247 834.489252,431.740579 797.554064,447.125496 C760.618877,462.510412 526.481104,515.218991 526.481104,515.218991 L821.750757,472.031846 C821.750757,472.031846 804.55425,531.957708 775.641643,545.728821 C746.729036,559.499935 520.715162,611.105749 520.715162,611.105749 L799.221214,571.827592 C799.221214,571.827592 783.240528,621.559602 760.968886,633.546568 C742.642042,643.410378 643.023332,668.593316 609.491246,686.075835 C602.273566,689.838895 590.34919,696.932809 587.440662,698.869702 C579.712835,704.015939 572.550106,699.242696 548.341811,690.916816 C525.324253,683.000463 495.51031,671.675825 471.113249,662.402251 C460.807692,658.485003 456.565043,658.272446 449.371227,653.306681 C445.54179,650.663289 440.855869,653.306681 433.8695,640.47247 C418.014301,611.345895 456.007586,360.41948 456.007586,360.41948 C456.007586,360.41948 458.023492,346.013007 462.293937,341.968339 Z" id="Path-1"></path>
        </g>
    </g>
</svg>