<?xml version="1.0" encoding="UTF-8" standalone="no"?>
<svg width="1476px" height="170px" viewBox="0 0 1476 170" version="1.1" xmlns="http://www.w3.org/2000/svg" xmlns:xlink="http://www.w3.org/1999/xlink">
    <!-- Generator: Sketch 3.6.1 (26313) - http://www.bohemiancoding.com/sketch -->
    <title>White-Purple</title>
    <desc>Created with Sketch.</desc>
    <defs></defs>
    <g id="Page-1" stroke="none" stroke-width="1" fill="none" fill-rule="evenodd">
        <g id="White-Purple" fill="#34096C">
            <path d="M332.40625,67.390625 L344.109375,67.390625 C349.541694,67.390625 355.137992,66.8984424 360.898438,65.9140625 C356.596333,71.0547132 352.549498,73.625 348.757812,73.625 L344.109375,73.515625 L338.804688,73.40625 L334.59375,73.296875 L331.75,73.296875 L331.3125,77.2890625 L330.765625,82.1015625 C330.14583,87.2422132 329.024748,90.9700405 327.402344,93.2851562 C325.77994,95.600272 322.653669,97.8515516 318.023438,100.039062 L333.171875,100.859375 L326.609375,107.203125 L300.6875,106 L307.742188,99.21875 L313.648438,99.875 C318.096376,97.0676943 320.830724,91.3255642 321.851562,82.6484375 L322.453125,77.2890625 L326.773438,38.3515625 L324.914062,38.3515625 C317.84111,38.3515625 312.290385,39.8007668 308.261719,42.6992188 C304.233053,45.5976707 302.21875,49.5624748 302.21875,54.59375 C302.21875,57.6198068 303.057283,60.7187341 304.734375,63.890625 L295.875,72.421875 C295.036454,69.5781108 294.617188,66.8073052 294.617188,64.109375 C294.617188,53.9009906 298.864541,45.6432607 307.359375,39.3359375 C313.557323,34.7421645 322.361922,32.4453125 333.773438,32.4453125 L351.875,32.4453125 C358.656284,32.4453125 365.565069,32.2083357 372.601562,31.734375 L368.226562,42.9453125 L367.351562,44.96875 C366.4401,47.1198024 365.273445,48.1953125 363.851562,48.1953125 C363.596353,48.1953125 363.322918,48.1770835 363.03125,48.140625 C363.468752,46.2812407 363.6875,44.822922 363.6875,43.765625 C363.6875,41.359363 362.411471,39.8554718 359.859375,39.2539062 C357.307279,38.6523407 350.981821,38.3515625 340.882812,38.3515625 L335.632812,38.3515625 L332.40625,67.390625 Z M384.46875,107.421875 C376.265584,107.421875 372.164062,101.989638 372.164062,91.125 C372.164062,82.3749562 375.372364,73.944051 381.789062,65.8320312 C388.205761,57.7200115 394.859341,53.6640625 401.75,53.6640625 C410.062542,53.6640625 414.21875,59.0962998 414.21875,69.9609375 C414.21875,78.7474398 411.010449,87.1874595 404.59375,95.28125 C398.177051,103.37504 391.468785,107.421875 384.46875,107.421875 L384.46875,107.421875 Z M391.085938,101.296875 C395.278667,101.296875 398.787746,98.963565 401.613281,94.296875 C404.438816,89.630185 405.851562,83.815139 405.851562,76.8515625 C405.851562,65.4765056 402.31514,59.7890625 395.242188,59.7890625 C391.085917,59.7890625 387.595066,62.131487 384.769531,66.8164062 C381.943996,71.5013255 380.53125,77.307257 380.53125,84.234375 C380.53125,95.6094319 384.049444,101.296875 391.085938,101.296875 L391.085938,101.296875 Z M461.140625,61.4296875 L437.515625,61.4296875 L434.78125,85.6015625 C434.307289,89.9401259 434.070312,93.1484271 434.070312,95.2265625 C434.070312,99.3463748 435.473944,101.40625 438.28125,101.40625 C441.307307,101.40625 444.442692,98.9271081 447.6875,93.96875 C448.234378,94.6614618 448.507812,95.2812473 448.507812,95.828125 C448.507812,97.8698019 446.712258,100.312486 443.121094,103.15625 C439.52993,106.000014 436.440117,107.421875 433.851562,107.421875 C428.674453,107.421875 426.085938,104.1042 426.085938,97.46875 C426.085938,95.0260295 426.39583,91.0703398 427.015625,85.6015625 L429.695312,61.4296875 L418.15625,61.4296875 L424.554688,55.0859375 L430.40625,55.0859375 L431.554688,45.1328125 L439.59375,42.453125 L438.226562,55.0859375 L461.851562,55.0859375 C463.127611,42.4712911 466.262996,32.6458685 471.257812,25.609375 C479.096393,14.6353618 488.283801,9.1484375 498.820312,9.1484375 C500.60678,9.1484375 502.356762,9.34895633 504.070312,9.75 L496.03125,17.625 C493.953115,17.0052052 492.002613,16.6953125 490.179688,16.6953125 C479.31505,16.6953125 472.934905,25.1535613 471.039062,42.0703125 L467.320312,75.8125 C471.585959,69.3958013 476.279922,64.1002813 481.402344,59.9257813 C486.524765,55.7512812 490.890607,53.6640625 494.5,53.6640625 C498.072935,53.6640625 499.859375,56.1432044 499.859375,61.1015625 C499.859375,62.5234446 499.640627,64.7473807 499.203125,67.7734375 L496.25,88.171875 C495.666664,92.2187702 495.375,95.4635295 495.375,97.90625 C495.375,99.7656343 495.903641,100.695312 496.960938,100.695312 C499.513034,100.695312 502.593732,97.3411794 506.203125,90.6328125 C507.078129,91.1796902 507.515625,91.7447887 507.515625,92.328125 C507.515625,94.734387 505.483093,97.8515434 501.417969,101.679688 C497.352844,105.507832 494.044284,107.421875 491.492188,107.421875 C488.648423,107.421875 487.226562,105.380229 487.226562,101.296875 C487.226562,98.3072767 487.609371,94.1692973 488.375,88.8828125 L490.289062,75.6484375 C490.908857,71.3098741 491.21875,67.8828251 491.21875,65.3671875 C491.21875,62.5234233 490.216156,61.1015625 488.210938,61.1015625 C483.544247,61.1015625 478.813826,64.2734058 474.019531,70.6171875 C469.225236,76.9609692 466.427087,83.7421514 465.625,90.9609375 L464.148438,104.085938 L456,107.421875 L456.164062,105.890625 L456.601562,101.84375 L457.039062,98.015625 L461.140625,61.4296875 Z M545.851562,88.609375 C546.763025,89.2291698 547.21875,89.9583291 547.21875,90.796875 C547.21875,91.927089 546.052095,93.8593613 543.71875,96.59375 C537.484344,103.812536 531.322947,107.421875 525.234375,107.421875 C521.515606,107.421875 518.453137,105.945327 516.046875,102.992188 C513.640613,100.039048 512.4375,96.265648 512.4375,91.671875 C512.4375,83.3593334 515.582,74.9466571 521.871094,66.4335938 C528.160188,57.9205304 534.385386,53.6640625 540.546875,53.6640625 C544.994814,53.6640625 547.21875,56.0520595 547.21875,60.828125 C547.21875,66.1875268 544.62112,71.4192453 539.425781,76.5234375 C534.230443,81.6276297 527.895871,85.1822816 520.421875,87.1875 C521.151045,95.9740023 524.614552,100.367188 530.8125,100.367188 C536.937531,100.367188 541.950501,96.4479559 545.851562,88.609375 L545.851562,88.609375 Z M520.640625,80.515625 C521.697922,80.8802102 522.664058,81.0625 523.539062,81.0625 C528.059918,81.0625 532.015608,79.6770972 535.40625,76.90625 C538.796892,74.1354028 540.492188,70.8906436 540.492188,67.171875 C540.492188,62.9062287 538.322938,60.7734375 533.984375,60.7734375 C530.848943,60.7734375 528.014336,62.6419084 525.480469,66.3789062 C522.946602,70.1159041 521.333337,74.8280966 520.640625,80.515625 L520.640625,80.515625 Z M568.273438,76.8515625 C572.210957,69.9973616 576.567684,64.4192923 581.34375,60.1171875 C586.119816,55.8150827 590.330711,53.6640625 593.976562,53.6640625 C599.226589,53.6640625 601.851562,58.1301637 601.851562,67.0625 C601.851562,78.0000547 598.378941,87.3424092 591.433594,95.0898437 C584.488247,102.837278 576.112028,106.710937 566.304688,106.710937 C565.065098,106.710937 563.971359,106.656251 563.023438,106.546875 L558.59375,106.109375 C558.33854,106.109375 557.645839,106.072917 556.515625,106 C557.317712,103.229153 557.882811,100.330744 558.210938,97.3046875 L563.460938,50.109375 C564.736986,38.7707766 568.929652,29.1094149 576.039062,21.125 C583.148473,13.1405851 591.09631,9.1484375 599.882812,9.1484375 C601.705738,9.1484375 603.455721,9.34895633 605.132812,9.75 L597.09375,17.625 C595.015615,17.0052052 593.065113,16.6953125 591.242188,16.6953125 C580.37755,16.6953125 574.015634,25.1535612 572.15625,42.0703125 L568.273438,76.8515625 Z M565.867188,98.5078125 C569.257829,100.367197 572.648421,101.296875 576.039062,101.296875 C581.070338,101.296875 585.15363,98.389352 588.289062,92.5742188 C591.424495,86.7590855 592.992188,79.1849425 592.992188,69.8515625 C592.992188,64.4192437 591.51564,61.703125 588.5625,61.703125 C585.281234,61.703125 581.434918,64.1640379 577.023438,69.0859375 C571.044241,75.7578459 567.544276,83.5963091 566.523438,92.6015625 L565.867188,98.5078125 Z M648.609375,84.234375 C644.927065,90.9427419 641.071635,96.4843531 637.042969,100.859375 C633.014303,105.234397 629.723971,107.421875 627.171875,107.421875 C623.671857,107.421875 621.739585,103.73962 621.375,96.375 L620.992188,88.7734375 L620.28125,73.296875 L620.117188,68.8671875 C619.789061,62.9973665 618.713551,60.0625 616.890625,60.0625 C614.046861,60.0625 611.276055,62.7603897 608.578125,68.15625 C607.630204,67.4999967 607.15625,66.7890663 607.15625,66.0234375 C607.15625,64.0546777 608.924461,61.5026198 612.460938,58.3671875 C615.997414,55.2317552 618.877593,53.6640625 621.101562,53.6640625 C623.398449,53.6640625 625.020829,54.6940001 625.96875,56.7539062 C626.916671,58.8138124 627.536457,62.6145556 627.828125,68.15625 L628.8125,87.296875 C629.177085,94.5885781 630.34374,98.234375 632.3125,98.234375 C635.26564,98.234375 638.929666,94.8528984 643.304688,88.0898438 C647.679709,81.3267891 650.486973,74.6823243 651.726562,68.15625 L653.859375,57 L663.59375,53.609375 C662.35416,56.8177244 661.078132,61.6666342 659.765625,68.15625 L652.4375,104.851562 C649.557277,119.216218 645.109405,129.825487 639.09375,136.679688 C630.088497,146.888072 619.661518,151.992188 607.8125,151.992188 C605.333321,151.992188 602.544286,151.445318 599.445312,150.351562 L606.171875,142.96875 C609.598975,144.500008 613.171856,145.265625 616.890625,145.265625 C624.473996,145.265625 630.161439,142.804712 633.953125,137.882812 C637.744811,132.960913 640.916654,123.937566 643.46875,110.8125 L648.609375,84.234375 Z M675.132812,61.046875 L673.710938,59.515625 C679.28909,55.4687298 682.078125,51.0390866 682.078125,46.2265625 C682.078125,42.2161258 679.890647,38.7526187 675.515625,35.8359375 L683.171875,28.234375 C687.656272,31.5520999 689.898438,35.4713316 689.898438,39.9921875 C689.898438,46.4818033 684.976612,53.4999623 675.132812,61.046875 L675.132812,61.046875 Z M688.914062,104.46875 L696.460938,98.2890625 C699.304702,101.315119 702.877583,102.828125 707.179688,102.828125 C712.429714,102.828125 715.054688,100.294296 715.054688,95.2265625 C715.054688,92.4192568 712.648462,88.5000252 707.835938,83.46875 L704.71875,80.2421875 C700.161436,75.466122 697.882812,71.6015773 697.882812,68.6484375 C697.882812,64.4192497 699.714825,60.8645977 703.378906,57.984375 C707.042987,55.1041523 711.554661,53.6640625 716.914062,53.6640625 C719.830744,53.6640625 723.020816,54.210932 726.484375,55.3046875 L719.921875,61.375 C717.151028,59.2968646 714.070329,58.2578125 710.679688,58.2578125 C706.705709,58.2578125 704.71875,59.9166501 704.71875,63.234375 C704.71875,65.6041785 706.924457,69.0859145 711.335938,73.6796875 L714.726562,77.2890625 C719.757838,82.5390888 722.273438,86.7682131 722.273438,89.9765625 C722.273438,94.5703355 720.06773,98.6262845 715.65625,102.144531 C711.24477,105.662778 706.158883,107.421875 700.398438,107.421875 C696.315084,107.421875 692.486997,106.43751 688.914062,104.46875 L688.914062,104.46875 Z M774.9375,63.671875 L766.351562,71.9296875 C764.856763,68.0286263 764.109375,64.2552266 764.109375,60.609375 C764.109375,51.5676631 768.028607,44.2760694 775.867188,38.734375 C782.42972,34.067685 793.658775,31.734375 809.554688,31.734375 C812.252618,31.734375 814.622386,31.789062 816.664062,31.8984375 C822.315132,32.2630227 825.213541,32.4453125 825.359375,32.4453125 L829.1875,32.4453125 C826.343736,36.8932514 824.921875,45.8983697 824.921875,59.4609375 L824.976562,62.3046875 L825.195312,68.59375 C825.195312,76.1406627 826.124991,83.8697521 827.984375,91.78125 C828.713545,94.8437653 829.424476,96.8124956 830.117188,97.6875 C830.809899,98.5625044 832.013012,99 833.726562,99 C835.585947,99 837.700509,98.3984435 840.070312,97.1953125 C840.325522,97.8151073 840.453125,98.3255188 840.453125,98.7265625 C840.453125,99.6380254 839.742195,100.421872 838.320312,101.078125 L835.75,102.335938 L822.296875,108.1875 C819.307277,98.9634955 817.502607,89.3021338 816.882812,79.203125 L812.726562,82.1015625 L794.351562,82.1015625 C790.997379,90.6328552 786.403675,96.7213359 780.570312,100.367188 L791.890625,100.914062 L785.984375,107.148438 L764.164062,106.382812 L771.4375,99.8203125 L776.90625,100.148438 C779.385429,98.3255117 781.499991,95.7643394 783.25,92.4648438 C785.000009,89.1653481 787.606754,82.7760891 791.070312,73.296875 L792.710938,68.7578125 C796.065121,59.6067251 799.255193,52.9440313 802.28125,48.7695312 C805.307307,44.5950312 809.427057,41.1588677 814.640625,38.4609375 C808.916638,37.4036405 802.882844,36.875 796.539062,36.875 C780.38794,36.875 772.3125,42.3254663 772.3125,53.2265625 C772.3125,56.9453311 773.187491,60.4270671 774.9375,63.671875 L774.9375,63.671875 Z M816.773438,76.1953125 C816.263018,69.8515308 816.007812,64.7109572 816.007812,60.7734375 C816.007812,58.7682191 816.04427,57.1276105 816.117188,55.8515625 L816.554688,49.5078125 C816.846356,45.1692491 817.247393,41.851574 817.757812,39.5546875 C810.611943,43.9297094 804.74221,52.8619117 800.148438,66.3515625 C798.835931,70.2526237 798.070314,72.4947887 797.851562,73.078125 L796.59375,76.1953125 L816.773438,76.1953125 Z M883.21875,84.5078125 C879.062479,90.8880527 874.37763,96.3020611 869.164062,100.75 C863.950495,105.197939 859.703141,107.421875 856.421875,107.421875 C852.812482,107.421875 851.007812,105.015649 851.007812,100.203125 C851.007812,98.4166577 851.244789,95.4817913 851.71875,91.3984375 L853.6875,73.4609375 C853.723959,73.2057279 853.815103,72.1484468 853.960938,70.2890625 L854.289062,66.734375 C854.398438,65.677078 854.453125,64.7291709 854.453125,63.890625 C854.453125,61.7760311 853.851569,60.71875 852.648438,60.71875 C849.87759,60.71875 846.888037,63.8359063 843.679688,70.0703125 C842.986976,69.5234348 842.640625,68.9401073 842.640625,68.3203125 C842.640625,66.0598845 844.654928,63.0521021 848.683594,59.296875 C852.71226,55.5416479 855.911446,53.6640625 858.28125,53.6640625 C861.307307,53.6640625 862.820312,55.7421667 862.820312,59.8984375 C862.820312,60.8828174 862.747397,62.0312434 862.601562,63.34375 L862.109375,67.5546875 L861.617188,72.1484375 L859.867188,87.7890625 C859.575519,90.4505341 859.429688,93.1484238 859.429688,95.8828125 C859.429688,98.3984501 860.359366,99.65625 862.21875,99.65625 C866.338562,99.65625 870.996068,96.2656589 876.191406,89.484375 C881.386745,82.7030911 884.458329,75.9948248 885.40625,69.359375 L887.265625,56.3984375 L896.125,53.390625 C895.104162,57.6198128 894.338544,61.3932126 893.828125,64.7109375 L890.546875,87.5703125 C890.364582,88.9557361 890.218751,90.1223911 890.109375,91.0703125 L889.726562,94.078125 C889.507811,95.9375093 889.398438,97.2499962 889.398438,98.015625 C889.398438,99.5833412 889.835933,100.367188 890.710938,100.367188 C893.809911,100.367188 896.963526,96.9401384 900.171875,90.0859375 C901.156255,90.6692738 901.648438,91.2526012 901.648438,91.8359375 C901.648438,93.1119855 900.062516,95.6822723 896.890625,99.546875 C892.624979,104.796901 888.669289,107.421875 885.023438,107.421875 C882.361966,107.421875 881.03125,105.635435 881.03125,102.0625 C881.03125,100.932286 881.158853,99.4192803 881.414062,97.5234375 L882.015625,93.1484375 C882.343752,90.778634 882.562499,89.1744834 882.671875,88.3359375 L883.21875,84.5078125 Z M944.523438,55.0859375 L938.289062,62.578125 C935.372381,61.374994 932.583347,60.7734375 929.921875,60.7734375 C925.145809,60.7734375 921.381524,62.7968548 918.628906,66.84375 C915.876288,70.8906452 914.5,76.4322565 914.5,83.46875 C914.5,88.4271081 915.49348,92.4192557 917.480469,95.4453125 C919.467458,98.4713693 922.065088,99.984375 925.273438,99.984375 C930.705756,99.984375 934.971339,96.429723 938.070312,89.3203125 C938.8724,90.1953169 939.273438,91.0156212 939.273438,91.78125 C939.273438,94.8073068 936.912784,98.1705544 932.191406,101.871094 C927.470028,105.571633 923.140645,107.421875 919.203125,107.421875 C915.411439,107.421875 912.303398,105.899755 909.878906,102.855469 C907.454415,99.8111827 906.242188,95.8646076 906.242188,91.015625 C906.242188,81.5728695 909.450489,72.9870178 915.867188,65.2578125 C922.283886,57.5286072 929.411419,53.6640625 937.25,53.6640625 C940.093764,53.6640625 942.518219,54.1380161 944.523438,55.0859375 L944.523438,55.0859375 Z M966.453125,61.4296875 L963.71875,85.6015625 C963.244789,89.9401259 963.007812,93.1484271 963.007812,95.2265625 C963.007812,99.3463748 964.411444,101.40625 967.21875,101.40625 C970.244807,101.40625 973.380192,98.9271081 976.625,93.96875 C977.171878,94.6614618 977.445312,95.2812473 977.445312,95.828125 C977.445312,97.8698019 975.649758,100.312486 972.058594,103.15625 C968.46743,106.000014 965.377617,107.421875 962.789062,107.421875 C957.611953,107.421875 955.023438,104.1042 955.023438,97.46875 C955.023438,95.0260295 955.33333,91.0703398 955.953125,85.6015625 L958.632812,61.4296875 L947.09375,61.4296875 L953.492188,55.0859375 L959.34375,55.0859375 L960.492188,45.1328125 L968.53125,42.453125 L967.164062,55.0859375 L998.554688,55.0859375 L994.945312,87.5703125 L994.5625,91.0703125 C994.234373,94.1692863 994.070312,96.3567645 994.070312,97.6328125 C994.070312,99.4557383 994.544266,100.367188 995.492188,100.367188 C998.591161,100.367188 1001.6354,96.9401384 1004.625,90.0859375 C1005.64584,90.6692738 1006.15625,91.2708302 1006.15625,91.890625 C1006.15625,93.166673 1004.66147,95.7187309 1001.67188,99.546875 C997.552063,104.796901 993.687518,107.421875 990.078125,107.421875 C987.270819,107.421875 985.867188,105.489603 985.867188,101.625 C985.867188,100.203118 986.104164,97.3776253 986.578125,93.1484375 L987.070312,88.3359375 L990.078125,61.4296875 L966.453125,61.4296875 Z M994.125,46.609375 L998.71875,35.2890625 C1002.8021,33.6119708 1006.15624,31.2968898 1008.78125,28.34375 C1009.18229,28.8541692 1009.38281,29.3828098 1009.38281,29.9296875 C1009.38281,34.8151286 1004.29693,40.3749688 994.125,46.609375 L994.125,46.609375 Z M1023.875,107.421875 C1015.67183,107.421875 1011.57031,101.989638 1011.57031,91.125 C1011.57031,82.3749562 1014.77861,73.944051 1021.19531,65.8320312 C1027.61201,57.7200115 1034.26559,53.6640625 1041.15625,53.6640625 C1049.46879,53.6640625 1053.625,59.0962998 1053.625,69.9609375 C1053.625,78.7474398 1050.4167,87.1874595 1044,95.28125 C1037.5833,103.37504 1030.87504,107.421875 1023.875,107.421875 L1023.875,107.421875 Z M1030.49219,101.296875 C1034.68492,101.296875 1038.194,98.963565 1041.01953,94.296875 C1043.84507,89.630185 1045.25781,83.815139 1045.25781,76.8515625 C1045.25781,65.4765056 1041.72139,59.7890625 1034.64844,59.7890625 C1030.49217,59.7890625 1027.00132,62.131487 1024.17578,66.8164062 C1021.35025,71.5013255 1019.9375,77.307257 1019.9375,84.234375 C1019.9375,95.6094319 1023.45569,101.296875 1030.49219,101.296875 L1030.49219,101.296875 Z M1074.51562,104.085938 L1066.36719,107.421875 L1066.53125,105.890625 L1066.96875,101.84375 L1067.40625,98.015625 L1070.25,72.640625 L1070.57812,69.7421875 C1070.79688,67.4817595 1070.90625,65.6588611 1070.90625,64.2734375 C1070.90625,61.9400925 1070.32292,60.7734375 1069.15625,60.7734375 C1066.42186,60.7734375 1063.48699,63.8723648 1060.35156,70.0703125 C1059.51302,69.3776007 1059.09375,68.7760442 1059.09375,68.265625 C1059.09375,66.0781141 1061.08982,63.0976751 1065.08203,59.3242188 C1069.07424,55.5507624 1072.21874,53.6640625 1074.51562,53.6640625 C1077.65106,53.6640625 1079.21875,55.6692508 1079.21875,59.6796875 C1079.21875,60.7005259 1079.12761,62.0676998 1078.94531,63.78125 L1078.50781,68.2109375 L1078.07031,71.9296875 L1077.63281,75.8125 C1081.93492,69.3958013 1086.64711,64.1002813 1091.76953,59.9257812 C1096.89195,55.7512812 1101.25779,53.6640625 1104.86719,53.6640625 C1108.40366,53.6640625 1110.17188,56.1249754 1110.17188,61.046875 C1110.17188,62.5416741 1109.97136,64.7838392 1109.57031,67.7734375 L1106.61719,88.171875 C1106.03385,92.2552288 1105.74219,95.481759 1105.74219,97.8515625 C1105.74219,99.7474053 1106.2526,100.695312 1107.27344,100.695312 C1109.78908,100.695312 1112.888,97.3411794 1116.57031,90.6328125 C1117.44532,91.1796902 1117.88281,91.7447887 1117.88281,92.328125 C1117.88281,94.6979285 1115.85028,97.8059704 1111.78516,101.652344 C1107.72003,105.498717 1104.41147,107.421875 1101.85938,107.421875 C1099.01561,107.421875 1097.59375,105.380229 1097.59375,101.296875 C1097.59375,98.3072767 1097.97656,94.1692973 1098.74219,88.8828125 L1100.65625,75.6484375 C1101.27604,71.3463327 1101.58594,67.9375126 1101.58594,65.421875 C1101.58594,62.5416523 1100.58334,61.1015625 1098.57812,61.1015625 C1093.91143,61.1015625 1089.18101,64.2642913 1084.38672,70.5898438 C1079.59242,76.9153962 1076.79427,83.7056929 1075.99219,90.9609375 L1074.51562,104.085938 Z M1197.01562,32.4453125 C1195.37499,40.7943126 1194.39063,46.4088398 1194.0625,49.2890625 L1192.36719,64.4375 L1222.88281,64.4375 L1223.10156,62.46875 C1225.47137,41.2863524 1229.66403,26.8854548 1235.67969,19.265625 C1243.04431,9.932245 1251.21089,5.265625 1260.17969,5.265625 C1263.53387,5.265625 1266.65103,5.8489525 1269.53125,7.015625 L1261.4375,14.9453125 C1258.37498,12.8671771 1255.33074,11.828125 1252.30469,11.828125 C1246.1432,11.828125 1241.85939,14.8814799 1239.45312,20.9882812 C1237.04686,27.0950826 1234.65887,40.9217673 1232.28906,62.46875 L1231.46875,69.90625 C1230.44791,79.4948396 1229.9375,86.9140363 1229.9375,92.1640625 C1229.9375,95.2630363 1231.26822,96.8125 1233.92969,96.8125 C1235.89845,96.8125 1238.34113,95.9739667 1241.25781,94.296875 C1241.40365,94.9531283 1241.47656,95.4088529 1241.47656,95.6640625 C1241.47656,96.757818 1240.51043,97.7421831 1238.57812,98.6171875 L1235.40625,100.09375 L1219.32812,107.421875 C1219.32812,100.67705 1220.20312,89.2110184 1221.95312,73.0234375 L1222.17188,71.0546875 L1191.65625,71.0546875 L1191.10938,76.03125 L1190.39844,82.1015625 C1189.77864,87.2786717 1188.65756,91.0156135 1187.03516,93.3125 C1185.41275,95.6093865 1182.30471,97.8515516 1177.71094,100.039063 L1190.61719,100.859375 L1184.05469,107.203125 L1160.375,106 L1167.375,99.21875 L1173.33594,99.875 C1176.21616,98.0156157 1178.20312,95.6914202 1179.29688,92.9023438 C1180.39063,90.1132673 1181.33854,84.9271213 1182.14062,77.34375 L1186.35156,39.0625 L1184.65625,39.0625 C1169.48951,39.0625 1161.90625,44.0754707 1161.90625,54.1015625 C1161.90625,57.2369948 1162.76301,60.3906091 1164.47656,63.5625 L1155.5625,72.09375 C1154.72395,69.2499858 1154.30469,66.4244932 1154.30469,63.6171875 C1154.30469,54.2108905 1157.80465,46.6640909 1164.80469,40.9765625 C1171.80472,35.2890341 1181.1015,32.4453125 1192.69531,32.4453125 L1197.01562,32.4453125 Z M1261.05469,107.421875 C1252.85152,107.421875 1248.75,101.989638 1248.75,91.125 C1248.75,82.3749562 1251.9583,73.944051 1258.375,65.8320312 C1264.7917,57.7200115 1271.44528,53.6640625 1278.33594,53.6640625 C1286.64848,53.6640625 1290.80469,59.0962998 1290.80469,69.9609375 C1290.80469,78.7474398 1287.59639,87.1874595 1281.17969,95.28125 C1274.76299,103.37504 1268.05472,107.421875 1261.05469,107.421875 L1261.05469,107.421875 Z M1267.67188,101.296875 C1271.8646,101.296875 1275.37368,98.963565 1278.19922,94.296875 C1281.02475,89.630185 1282.4375,83.815139 1282.4375,76.8515625 C1282.4375,65.4765056 1278.90108,59.7890625 1271.82812,59.7890625 C1267.67185,59.7890625 1264.181,62.131487 1261.35547,66.8164062 C1258.52993,71.5013255 1257.11719,77.307257 1257.11719,84.234375 C1257.11719,95.6094319 1260.63538,101.296875 1267.67188,101.296875 L1267.67188,101.296875 Z M1336.52344,84.5078125 C1332.36717,90.8880527 1327.68232,96.3020611 1322.46875,100.75 C1317.25518,105.197939 1313.00783,107.421875 1309.72656,107.421875 C1306.11717,107.421875 1304.3125,105.015649 1304.3125,100.203125 C1304.3125,98.4166577 1304.54948,95.4817913 1305.02344,91.3984375 L1306.99219,73.4609375 C1307.02865,73.2057279 1307.11979,72.1484468 1307.26562,70.2890625 L1307.59375,66.734375 C1307.70313,65.677078 1307.75781,64.7291709 1307.75781,63.890625 C1307.75781,61.7760311 1307.15626,60.71875 1305.95312,60.71875 C1303.18228,60.71875 1300.19272,63.8359063 1296.98438,70.0703125 C1296.29166,69.5234348 1295.94531,68.9401073 1295.94531,68.3203125 C1295.94531,66.0598845 1297.95962,63.0521021 1301.98828,59.296875 C1306.01695,55.5416479 1309.21613,53.6640625 1311.58594,53.6640625 C1314.61199,53.6640625 1316.125,55.7421667 1316.125,59.8984375 C1316.125,60.8828174 1316.05208,62.0312434 1315.90625,63.34375 L1315.41406,67.5546875 L1314.92188,72.1484375 L1313.17188,87.7890625 C1312.88021,90.4505341 1312.73438,93.1484238 1312.73438,95.8828125 C1312.73438,98.3984501 1313.66405,99.65625 1315.52344,99.65625 C1319.64325,99.65625 1324.30076,96.2656589 1329.49609,89.484375 C1334.69143,82.7030911 1337.76302,75.9948248 1338.71094,69.359375 L1340.57031,56.3984375 L1349.42969,53.390625 C1348.40885,57.6198128 1347.64323,61.3932126 1347.13281,64.7109375 L1343.85156,87.5703125 C1343.66927,88.9557361 1343.52344,90.1223911 1343.41406,91.0703125 L1343.03125,94.078125 C1342.8125,95.9375093 1342.70312,97.2499962 1342.70312,98.015625 C1342.70312,99.5833412 1343.14062,100.367188 1344.01562,100.367188 C1347.1146,100.367188 1350.26821,96.9401384 1353.47656,90.0859375 C1354.46094,90.6692738 1354.95312,91.2526012 1354.95312,91.8359375 C1354.95312,93.1119855 1353.3672,95.6822723 1350.19531,99.546875 C1345.92967,104.796901 1341.97398,107.421875 1338.32812,107.421875 C1335.66665,107.421875 1334.33594,105.635435 1334.33594,102.0625 C1334.33594,100.932286 1334.46354,99.4192803 1334.71875,97.5234375 L1335.32031,93.1484375 C1335.64844,90.778634 1335.86719,89.1744834 1335.97656,88.3359375 L1336.52344,84.5078125 Z M1356.26562,104.46875 L1363.8125,98.2890625 C1366.65626,101.315119 1370.22915,102.828125 1374.53125,102.828125 C1379.78128,102.828125 1382.40625,100.294296 1382.40625,95.2265625 C1382.40625,92.4192568 1380.00002,88.5000252 1375.1875,83.46875 L1372.07031,80.2421875 C1367.513,75.466122 1365.23438,71.6015773 1365.23438,68.6484375 C1365.23438,64.4192497 1367.06639,60.8645977 1370.73047,57.984375 C1374.39455,55.1041523 1378.90622,53.6640625 1384.26562,53.6640625 C1387.18231,53.6640625 1390.37238,54.210932 1393.83594,55.3046875 L1387.27344,61.375 C1384.50259,59.2968646 1381.42189,58.2578125 1378.03125,58.2578125 C1374.05727,58.2578125 1372.07031,59.9166501 1372.07031,63.234375 C1372.07031,65.6041785 1374.27602,69.0859145 1378.6875,73.6796875 L1382.07812,77.2890625 C1387.1094,82.5390888 1389.625,86.7682131 1389.625,89.9765625 C1389.625,94.5703355 1387.41929,98.6262845 1383.00781,102.144531 C1378.59633,105.662778 1373.51045,107.421875 1367.75,107.421875 C1363.66665,107.421875 1359.83856,106.43751 1356.26562,104.46875 L1356.26562,104.46875 Z M1432.77344,88.609375 C1433.6849,89.2291698 1434.14062,89.9583291 1434.14062,90.796875 C1434.14062,91.927089 1432.97397,93.8593613 1430.64062,96.59375 C1424.40622,103.812536 1418.24482,107.421875 1412.15625,107.421875 C1408.43748,107.421875 1405.37501,105.945327 1402.96875,102.992188 C1400.56249,100.039048 1399.35938,96.265648 1399.35938,91.671875 C1399.35938,83.3593334 1402.50387,74.9466571 1408.79297,66.4335938 C1415.08206,57.9205304 1421.30726,53.6640625 1427.46875,53.6640625 C1431.91669,53.6640625 1434.14062,56.0520595 1434.14062,60.828125 C1434.14062,66.1875268 1431.54299,71.4192453 1426.34766,76.5234375 C1421.15232,81.6276297 1414.81775,85.1822816 1407.34375,87.1875 C1408.07292,95.9740023 1411.53643,100.367188 1417.73438,100.367188 C1423.85941,100.367188 1428.87238,96.4479559 1432.77344,88.609375 L1432.77344,88.609375 Z M1407.5625,80.515625 C1408.6198,80.8802102 1409.58593,81.0625 1410.46094,81.0625 C1414.98179,81.0625 1418.93748,79.6770972 1422.32812,76.90625 C1425.71877,74.1354028 1427.41406,70.8906436 1427.41406,67.171875 C1427.41406,62.9062287 1425.24481,60.7734375 1420.90625,60.7734375 C1417.77082,60.7734375 1414.93621,62.6419084 1412.40234,66.3789062 C1409.86848,70.1159041 1408.25521,74.8280966 1407.5625,80.515625 L1407.5625,80.515625 Z M1437.69531,104.46875 L1445.24219,98.2890625 C1448.08595,101.315119 1451.65883,102.828125 1455.96094,102.828125 C1461.21096,102.828125 1463.83594,100.294296 1463.83594,95.2265625 C1463.83594,92.4192568 1461.42971,88.5000252 1456.61719,83.46875 L1453.5,80.2421875 C1448.94269,75.466122 1446.66406,71.6015773 1446.66406,68.6484375 C1446.66406,64.4192497 1448.49608,60.8645977 1452.16016,57.984375 C1455.82424,55.1041523 1460.33591,53.6640625 1465.69531,53.6640625 C1468.61199,53.6640625 1471.80207,54.210932 1475.26562,55.3046875 L1468.70312,61.375 C1465.93228,59.2968646 1462.85158,58.2578125 1459.46094,58.2578125 C1455.48696,58.2578125 1453.5,59.9166501 1453.5,63.234375 C1453.5,65.6041785 1455.70571,69.0859145 1460.11719,73.6796875 L1463.50781,77.2890625 C1468.53909,82.5390888 1471.05469,86.7682131 1471.05469,89.9765625 C1471.05469,94.5703355 1468.84898,98.6262845 1464.4375,102.144531 C1460.02602,105.662778 1454.94013,107.421875 1449.17969,107.421875 C1445.09633,107.421875 1441.26825,106.43751 1437.69531,104.46875 L1437.69531,104.46875 Z" id="Fotheby’s-Auction-Ho"></path>
            <path d="M14.7619339,1.39397133 C16.2556257,-0.0594409889 22.2256556,0.000345477161 22.2256556,0.000345477161 L168.493214,1.39397133 C168.493214,1.39397133 155.399026,14.6523635 114.440741,21.1573542 C73.4824564,27.662345 43.4247678,38.8408242 43.4247678,38.8408242 L182.467366,16.4459726 C182.467366,16.4459726 184.896738,43.5522058 168.013235,50.7771664 C151.129731,58.002127 44.1026341,82.7547747 44.1026341,82.7547747 L179.073824,62.4735187 C179.073824,62.4735187 171.213101,90.6154981 157.996812,97.0825957 C144.780523,103.549693 41.466955,127.784468 41.466955,127.784468 L168.775308,109.338925 C168.775308,109.338925 161.470351,132.693736 151.289724,138.322974 C142.912311,142.95515 97.375441,154.781391 82.0475344,162.991414 C78.7482493,164.758597 73.2974784,168.089993 71.9679565,168.999584 C68.435477,171.416325 65.16131,169.174747 54.0954172,165.264803 C43.5738238,161.547179 29.9455241,156.228979 18.793344,151.873985 C14.0825543,150.034394 12.1431899,149.934574 8.85481286,147.602585 C7.10433285,146.361213 4.96234377,147.602585 1.76879355,141.575469 C-5.4788022,127.897244 11.8883697,10.0588716 11.8883697,10.0588716 C11.8883697,10.0588716 12.8098638,3.29340106 14.7619339,1.39397133 Z" id="Path-1"></path>
        </g>
    </g>
</svg>